HIERARCHY
ROOT hips
{
  OFFSET 0 10.6860622 2.3727825e-15
  CHANNELS 6 Xposition Yposition Zposition Yrotation Xrotation Zrotation
  JOINT leftUpperLeg
  {
    OFFSET 0.6642549969 -0.9402397400000004 0
    CHANNELS 3 Yrotation Xrotation Zrotation
    JOINT leftLowerLeg
    {
      OFFSET 0 -3.997221335632195 0
      CHANNELS 3 Yrotation Xrotation Zrotation
      JOINT leftFoot
      {
        OFFSET -0.13777839790000004 -4.6145792000000005 -0.22186036399999998
        CHANNELS 3 Yrotation Xrotation Zrotation
        JOINT leftToes
        {
          OFFSET -0.03777410834999995 -0.9130806927000008 0.85230013
          CHANNELS 3 Yrotation Xrotation Zrotation
          End Site
          {
            OFFSET -0.03777410834999995 -0.9130806927000008 0.85230013
          }
        }
      }
    }
  }
  JOINT rightUpperLeg
  {
    OFFSET -0.6642778626 -0.9402397400000004 0
    CHANNELS 3 Yrotation Xrotation Zrotation
    JOINT rightLowerLeg
    {
      OFFSET 0 -3.997221452859387 0
      CHANNELS 3 Yrotation Xrotation Zrotation
      JOINT rightFoot
      {
        OFFSET 0.1377926176 -4.6145792000000005 -0.22185782299999995
        CHANNELS 3 Yrotation Xrotation Zrotation
        JOINT rightToes
        {
          OFFSET 0.037780746850000047 -0.9130806927000008 0.85230167
          CHANNELS 3 Yrotation Xrotation Zrotation
          End Site
          {
            OFFSET 0.037780746850000047 -0.9130806927000008 0.85230167
          }
        }
      }
    }
  }
  JOINT spine
  {
    OFFSET 0 0.13988381660000015 0
    CHANNELS 3 Yrotation Xrotation Zrotation
    JOINT chest
    {
      OFFSET 0 0.6191039003973773 0
      CHANNELS 3 Yrotation Xrotation Zrotation
      JOINT upperChest
      {
        OFFSET 0 0.9855186130586943 0
        CHANNELS 3 Yrotation Xrotation Zrotation
        JOINT leftShoulder
        {
          OFFSET 0.1807663869 1.5087829790000005 0
          CHANNELS 3 Yrotation Xrotation Zrotation
          JOINT leftUpperArm
          {
            OFFSET 0.5985063006419806 0 0
            CHANNELS 3 Yrotation Xrotation Zrotation
            JOINT leftLowerArm
            {
              OFFSET 2.2993332369501065 0 0
              CHANNELS 3 Yrotation Xrotation Zrotation
              JOINT leftHand
              {
                OFFSET 2.395047042602395 0 0
                CHANNELS 3 Yrotation Xrotation Zrotation
                JOINT leftIndexProximal
                {
                  OFFSET 0.5766295810000004 0.04556643899499946 0.17265095988184
                  CHANNELS 3 Yrotation Xrotation Zrotation
                  JOINT leftIndexIntermediate
                  {
                    OFFSET 0.2957229000000008 -0.019352197700001517 -0.007932640616999987
                    CHANNELS 3 Yrotation Xrotation Zrotation
                    JOINT leftIndexDistal
                    {
                      OFFSET 0.19008243099999922 -0.012484908149998475 -0.002786250786000012
                      CHANNELS 3 Yrotation Xrotation Zrotation
                      End Site
                      {
                        OFFSET 0.19008243099999922 -0.012484908149998475 -0.002786250786000012
                      }
                    }
                  }
                }
                JOINT leftMiddleProximal
                {
                  OFFSET 0.5834975091000001 0.0524350405149987 0.02204081888183999
                  CHANNELS 3 Yrotation Xrotation Zrotation
                  JOINT leftMiddleIntermediate
                  {
                    OFFSET 0.33880573540000003 -0.019871473270000717 -0.00000971183179999946
                    CHANNELS 3 Yrotation Xrotation Zrotation
                    JOINT leftMiddleDistal
                    {
                      OFFSET 0.20676022730000088 -0.012221336379999448 0.0001471936708000235
                      CHANNELS 3 Yrotation Xrotation Zrotation
                      End Site
                      {
                        OFFSET 0.20676022730000088 -0.012221336379999448 0.0001471936708000235
                      }
                    }
                  }
                }
                JOINT leftLittleProximal
                {
                  OFFSET 0.5344154683999995 -0.012880921405001189 -0.24414037221816004
                  CHANNELS 3 Yrotation Xrotation Zrotation
                  JOINT leftLittleIntermediate
                  {
                    OFFSET 0.21758961730000093 -0.011650919939999227 0.011893592810000034
                    CHANNELS 3 Yrotation Xrotation Zrotation
                    JOINT leftLittleDistal
                    {
                      OFFSET 0.1475273964999999 -0.008152365682999818 0.006001092492999946
                      CHANNELS 3 Yrotation Xrotation Zrotation
                      End Site
                      {
                        OFFSET 0.1475273964999999 -0.008152365682999818 0.006001092492999946
                      }
                    }
                  }
                }
                JOINT leftRingProximal
                {
                  OFFSET 0.5799399463000003 0.026911854694997794 -0.12150566991816003
                  CHANNELS 3 Yrotation Xrotation Zrotation
                  JOINT leftRingIntermediate
                  {
                    OFFSET 0.26167887460000006 -0.013480186499999602 0.010996293000000053
                    CHANNELS 3 Yrotation Xrotation Zrotation
                    JOINT leftRingDistal
                    {
                      OFFSET 0.17667108799999987 -0.008990287899999228 0.0055541023999999065
                      CHANNELS 3 Yrotation Xrotation Zrotation
                      End Site
                      {
                        OFFSET 0.17667108799999987 -0.008990287899999228 0.0055541023999999065
                      }
                    }
                  }
                }
                JOINT leftThumbProximal
                {
                  OFFSET 0.11018806699999972 -0.09448718900500053 0.17047963138184
                  CHANNELS 3 Yrotation Xrotation Zrotation
                  JOINT leftThumbIntermediate
                  {
                    OFFSET 0.31062601459999983 -0.08126270900000132 0.15443142000000007
                    CHANNELS 3 Yrotation Xrotation Zrotation
                    JOINT leftThumbDistal
                    {
                      OFFSET 0.21627175790000086 -0.08833193599999878 0.018771167799999988
                      CHANNELS 3 Yrotation Xrotation Zrotation
                      End Site
                      {
                        OFFSET 0.21627175790000086 -0.08833193599999878 0.018771167799999988
                      }
                    }
                  }
                }
              }
            }
          }
        }
        JOINT neck
        {
          OFFSET 0 1.5463305265074576 0
          CHANNELS 3 Yrotation Xrotation Zrotation
          JOINT head
          {
            OFFSET 0 0.8456443600000344 0
            CHANNELS 3 Yrotation Xrotation Zrotation
            JOINT leftEye
            {
              OFFSET 0.30408573140000006 0.5104519199999995 0.1276382305
              CHANNELS 3 Yrotation Xrotation Zrotation
              End Site
              {
                OFFSET 0.30408573140000006 0.5104519199999995 0.1276382305
              }
            }
            JOINT rightEye
            {
              OFFSET -0.30409491089999996 0.5104519199999995 0.1276379445
              CHANNELS 3 Yrotation Xrotation Zrotation
              End Site
              {
                OFFSET -0.30409491089999996 0.5104519199999995 0.1276379445
              }
            }
            JOINT jaw
            {
              OFFSET -3.155239131000001e-7 -0.11984121820000082 0.60178107
              CHANNELS 3 Yrotation Xrotation Zrotation
              End Site
              {
                OFFSET -3.155239131000001e-7 -0.11984121820000082 0.60178107
              }
            }
          }
        }
        JOINT rightShoulder
        {
          OFFSET -0.1807303465 1.5087829790000005 0
          CHANNELS 3 Yrotation Xrotation Zrotation
          JOINT rightUpperArm
          {
            OFFSET -0.5985063796536958 0 0
            CHANNELS 3 Yrotation Xrotation Zrotation
            JOINT rightLowerArm
            {
              OFFSET -2.2993322059002854 0 0
              CHANNELS 3 Yrotation Xrotation Zrotation
              JOINT rightHand
              {
                OFFSET -2.395045314457259 0 0
                CHANNELS 3 Yrotation Xrotation Zrotation
                JOINT rightIndexProximal
                {
                  OFFSET -0.5764487688300002 0.0441371204405987 0.17361932004999997
                  CHANNELS 3 Yrotation Xrotation Zrotation
                  JOINT rightIndexIntermediate
                  {
                    OFFSET -0.29573011380000047 -0.01934826376999843 -0.007698921482999974
                    CHANNELS 3 Yrotation Xrotation Zrotation
                    JOINT rightIndexDistal
                    {
                      OFFSET -0.19008373999999884 -0.012503266380000655 -0.0026365778999999897
                      CHANNELS 3 Yrotation Xrotation Zrotation
                      End Site
                      {
                        OFFSET -0.19008373999999884 -0.012503266380000655 -0.0026365778999999897
                      }
                    }
                  }
                }
                JOINT rightMiddleProximal
                {
                  OFFSET -0.5834852037300005 0.05211639405060153 0.02307162440000001
                  CHANNELS 3 Yrotation Xrotation Zrotation
                  JOINT rightMiddleIntermediate
                  {
                    OFFSET -0.33880114510000003 -0.019952774050000954 0.0002455003561999819
                    CHANNELS 3 Yrotation Xrotation Zrotation
                    JOINT rightMiddleDistal
                    {
                      OFFSET -0.20675694929999955 -0.012273788999999091 0.00030209124000002766
                      CHANNELS 3 Yrotation Xrotation Zrotation
                      End Site
                      {
                        OFFSET -0.20675694929999955 -0.012273788999999091 0.00030209124000002766
                      }
                    }
                  }
                }
                JOINT rightLittleProximal
                {
                  OFFSET -0.5346811737299992 -0.011214256288399227 -0.24363941305000003
                  CHANNELS 3 Yrotation Xrotation Zrotation
                  JOINT rightLittleIntermediate
                  {
                    OFFSET -0.21757715980000092 -0.011771559690000988 0.01201554387
                    CHANNELS 3 Yrotation Xrotation Zrotation
                    JOINT rightLittleDistal
                    {
                      OFFSET -0.1475201849000004 -0.00822055339600003 0.006082065407000015
                      CHANNELS 3 Yrotation Xrotation Zrotation
                      End Site
                      {
                        OFFSET -0.1475201849000004 -0.00822055339600003 0.006082065407000015
                      }
                    }
                  }
                }
                JOINT rightRingProximal
                {
                  OFFSET -0.5800810755299999 0.027657985680600072 -0.12066365025000003
                  CHANNELS 3 Yrotation Xrotation Zrotation
                  JOINT rightRingIntermediate
                  {
                    OFFSET -0.26166445029999974 -0.013623118409999302 0.011164098990000045
                    CHANNELS 3 Yrotation Xrotation Zrotation
                    JOINT rightRingDistal
                    {
                      OFFSET -0.17666387530000027 -0.009072900100000503 0.005668185599999959
                      CHANNELS 3 Yrotation Xrotation Zrotation
                      End Site
                      {
                        OFFSET -0.17666387530000027 -0.009072900100000503 0.005668185599999959
                      }
                    }
                  }
                }
                JOINT rightThumbProximal
                {
                  OFFSET -0.10997596379000074 -0.09577489355940072 0.16989765924999997
                  CHANNELS 3 Yrotation Xrotation Zrotation
                  JOINT rightThumbIntermediate
                  {
                    OFFSET -0.31036620999999986 -0.08229339117999834 0.15440884469999996
                    CHANNELS 3 Yrotation Xrotation Zrotation
                    JOINT rightThumbDistal
                    {
                      OFFSET -0.21631306399999906 -0.08825326400000111 0.018656797720000014
                      CHANNELS 3 Yrotation Xrotation Zrotation
                      End Site
                      {
                        OFFSET -0.21631306399999906 -0.08825326400000111 0.018656797720000014
                      }
                    }
                  }
                }
              }
            }
          }
        }
      }
    }
  }
}
MOTION
Frames: 4
Frame Time: 0.03333333333333333
-0.014989216811954975 -4.787933213641358 0.2558482587337494 -1.3701066325242361 -8.66711491926036 2.8466539610630774 7.779821592047972 -83.26235965411003 4.946301929562708 -78.51877193834237 81.35509398065145 -83.42701715819123 0.11067270683317453 3.8423446894165023 2.985757449410529 -8.634943373578947e-7 0.0013987353220727711 -8.427660772767354e-7 1.293174600728134 -84.94405875753739 -10.168707347132647 -103.2761018750884 80.6232328758258 -101.42388154527244 -1.2734924202313558 0.3936032855311269 -5.121974235720942 -0.000004375526338539114 -0.11542397846389317 9.103457017952715e-7 -1.3938857436098004 18.059273739087807 -4.239958959962414 0.020013870620902808 3.5343003852895793 -0.6610023309906725 0 0 0 -12.799947874509053 1.6704241726855753 -7.103343032792586 -17.245948705455532 -15.717810250829661 -55.43387295077711 -62.3140111778942 0.39626087922088293 0.6554214146087067 12.084958261476917 38.92443399353088 16.195271764456674 6.464020760777275 1.6776806105251871 -30.912549318096538 2.4020726436646314 0.5976653043541228 -27.942885470156437 1.3072074312551147 0.16949188504264234 -14.776971037959994 6.48751804274291 1.2819877977215368 -20.80329761697316 2.545797446360449 0.6768734037630593 -29.775924164650167 1.902130599926794 0.36601733269508746 -21.783659102936515 12.660420829941557 3.0352537536942084 -16.762521203200503 0.38368369384271167 0.014385060561573645 -4.293722783816035 1.8007697534061624 0.3267498301261727 -20.569062675525693 6.941897885371474 1.4845102690500556 -21.30109993687053 1.582068366666722 0.2502732811367545 -17.97945659848415 1.675685496938023 0.28165913932933995 -19.083039539590683 -2.6316733134299466 6.730695751580608 1.3503161365978742 20.38244450609877 15.92848777895734 -2.78913606453263 -0.267510567956183 3.692503301023927 1.897580591390577 -0.25083663854348454 -0.03538210637204421 1.4792731785485345 -6.562745770635102 -26.924433221166385 12.17511867583158 0 0 0 0 0 0 0 0 0 15.739278115779777 1.7968201681607683 9.88978709612274 26.850948179320895 -23.675477402485747 46.61947415534322 41.6207825729589 0.1868216929341738 -0.49156781701838886 3.0730229800320776 31.396942725896277 5.9717666956590945 -4.6382066110989335 0.6858371667612725 21.55707073609205 -2.089456655739298 0.602610152320709 32.17255962680597 -1.297511417925955 0.22076119814244044 19.31142325531231 -1.9520945589425867 -0.4116437814079808 22.596108147620814 -1.6814857504425444 0.378589308351661 25.37483365492493 -0.44883796476404275 0.025758883716142808 6.569580669496251 -9.875535216758907 1.1852344080245394 8.568429001380867 -1.3570896192375699 0.24218073957696895 20.23594847055737 -1.0730300655383205 0.1495854615601537 15.872248271244064 -3.4278145996412985 0.20201720379612162 22.338108085949102 -1.2422161160684817 0.20184344643977403 18.457959952340023 -0.4018000385275666 0.02063146228537112 5.8783528989622225 5.239372872660541 0.5077981821805602 -23.35099644936963 -16.41587005438846 25.183521953394717 2.7240558871713483 -9.472615455935276 -4.980357579225767 2.2347871663269183
-0.017897136509418488 -4.7861555647155765 0.26035866141319275 -1.2517365829475695 -8.564984794985838 2.843620371091496 7.560302785535267 -83.39256241529914 4.973289276140351 -78.55688657244049 81.30437088618366 -83.41356638815617 0.13039369310361257 4.0560454988740755 2.8884630926137564 -0.000002125201849184138 -0.2433172292219539 5.680195077984453e-7 2.03542051789945 -85.01858296898087 -10.8835271347895 -103.47841965659666 80.6186644744225 -101.65647098693223 -1.364321748737827 0.3511399554737215 -5.035074709557107 -0.000006447572381574606 -0.1203993415844617 -0.0000033313231699482426 -1.539508282387373 18.066677114837468 -4.202918219352132 -0.06580695386969941 3.5486881205174505 -0.5343398533593091 0 0 0 -13.072883541213827 1.6360657578566202 -7.425381018492152 -17.210368129057304 -15.110677700923622 -54.87439096101747 -62.89697950581288 0.4029317350414609 0.6588957212115273 12.837623641622585 38.107424993712534 17.900156240131643 6.952050670258633 2.117427576970494 -34.146883728265855 2.4712893325434857 0.6350656896505976 -28.82166924632105 1.2592265229538349 0.15708883810547328 -14.223046136746772 7.225899015175105 1.7078043253550244 -23.164979441151182 2.591414632291543 0.7032690370088677 -30.36464894301874 1.9119804267705092 0.36994549285489714 -21.902259436423876 13.159853568335311 3.478358225264486 -18.32818066904171 0.5229182887634449 0.026752858105161783 -5.856422118405939 1.948759564416569 0.3849004365063741 -22.34583105880335 7.866485333115842 2.0043514996087124 -23.404681055676857 1.6741983965134453 0.28113496934967475 -19.065487984739857 1.6806018438474386 0.28335446091406774 -19.14124062696728 -2.631708148358345 6.727692833348255 1.3483861776744148 21.273063096304785 16.311480585829667 -2.7633366588398007 0.47788123840828667 4.133713063204492 0.32328622666629614 -0.14521336663665657 0.000586025457502268 1.4413958255822599 -5.5633645340640285 -27.33810319391462 11.796547173968838 0 0 0 0 0 0 0 0 0 15.559054076272439 1.8121741502195008 9.90661439492939 27.917121695011105 -24.027398890054343 46.15631968795458 40.411512549271166 0.17656763310701323 -0.4798019971228582 3.6640995752106327 31.59056295227219 5.8644346418819975 -4.620218516682787 0.6964669418007837 22.570528679584278 -2.089082734895134 0.6023815417875649 32.166340827378356 -1.2982742186757712 0.22102792434787186 19.323304187217484 -1.9993868131031216 -0.41465271804566545 23.206854957855633 -1.6907983893328504 0.3830169695514444 25.5255766262535 -0.44607987957881556 0.02543020917749525 6.5288334553600995 -9.645926695921325 1.331361455030929 10.08541684189269 -1.4437088564503409 0.27528230868736936 21.58972727699147 -1.0812155122657052 0.15193568176078043 15.996560281135254 -3.636765543293875 0.28075492878664804 24.129461200410475 -1.364253416051935 0.24482852900997767 20.347210544893198 -0.4095791762105235 0.021439308967001598 5.992501690812942 5.104398802870088 0.7304521160952331 -22.947340485689224 -16.48347740577397 25.649260120557674 3.4917086610390635 -9.746994237255118 -4.508181122042689 3.629866865072034
-0.02079673297703266 -4.782827718188477 0.2616318464279175 -1.2449300993376673 -8.392293117776834 2.850997561933257 7.131210730929917 -83.57413196829997 5.291634840181526 -78.25059680261124 81.30211229885677 -83.07024501110938 0.15524745031484963 4.331763210741437 2.7675504384172513 -2.536426049680914e-7 -0.5052589067663296 4.320241020267781e-7 3.139842830829218 -85.17927348966148 -11.817649232556487 -103.15925087087577 80.64879794893396 -101.35968306827512 -1.4964952499766047 0.6072393042307145 -4.919263018340364 -0.000005984206113419193 -0.23005587688076543 9.609583872705517e-8 -1.3988977347978764 17.994806416611507 -4.166515190528606 -0.00968142299286286 3.4443586984840184 -0.2400893760588034 0 0 0 -13.615207437175403 1.5493873632026847 -8.27785880469569 -16.731134349228327 -14.659059294207221 -54.229527642074096 -63.41214447328797 0.4088825266073116 0.6618957560673668 12.513417345955656 37.52414433958525 18.440497688268344 7.088683479368227 2.291623513808294 -35.89100937522636 2.482327896966934 0.6411529396553977 -28.96240251341466 1.2395082506019144 0.15213295752843228 -13.996048448008871 7.4213729946017635 1.8714884910769094 -24.42993198433445 2.611755263853442 0.7152451972169468 -30.628401035299994 1.9307387402678837 0.37755064341834516 -22.128230676466497 13.46501675026538 3.6954750579579074 -18.908158240997544 0.5977433757371716 0.0349709542529259 -6.698256059235957 1.9198079692633103 0.37311399351161767 -21.996597017464385 8.33146257783003 2.2641852389754566 -24.069517851344735 1.7488524454583754 0.3075836520467954 -19.950591649907494 1.6782181808962515 0.2825273576092729 -19.112900346206466 -2.6321313808267246 6.725397027623699 1.3469093142310322 21.79793344819189 16.538421825612883 -2.7455440000625075 0.8411494809497991 4.368210787238593 -0.4498453315315668 -0.06524264629999615 0.0566435083956089 1.232362076622358 -5.05041174034176 -27.40008196214104 11.324733908359248 0 0 0 0 0 0 0 0 0 15.124512034210477 1.8735559407594025 9.610947114281435 28.888607073991658 -23.849651472360865 45.958196071037094 39.64834837909002 0.17023743281549183 -0.4722452720057209 4.052339898466398 31.497331375411058 4.824632302686313 -4.7394801681564065 0.6697829109864363 18.968769073531547 -2.057569133734405 0.5827740614965163 31.624872669649594 -1.3307706427898083 0.23259363300597496 19.82651740433152 -2.2298949316682006 -0.24544733380420888 20.903452314624484 -1.6250378200451512 0.35235070936122037 24.46620283501009 -0.47286816130171727 0.02859375438383988 6.922700251327935 -9.18734360799776 1.382545453414882 11.316786231886317 -1.4536461679408037 0.2792271626460581 21.745812335929703 -1.116833258391249 0.16232023638526036 16.53815312406983 -3.372415253731653 0.1449836997829265 25.616346019454905 -1.372982729791116 0.24809416337873333 20.483293522993435 -0.39111901184066655 0.01954181359204468 5.721592682404173 4.9838568177804765 0.9322609978575674 -22.583335672966548 -17.188459956460107 26.316404255708154 4.227494350798637 -10.447067591002227 -3.3490672376425663 5.7956657786526735
-0.024137578904628754 -4.779735906054688 0.2596736252307892 -1.0701734288377354 -8.238170078337653 2.824523503198319 6.592925454381176 -83.78542506316458 5.5451287135977765 -77.43524367144246 81.39846139596452 -82.20620303721607 0.1740204349374231 4.814501551718355 2.63110785429248 2.176021439457839e-7 -0.9002802035735773 4.212508715213166e-7 4.724796960065121 -85.3466312514065 -13.324137474324203 -102.93651517971027 80.68423750360708 -101.17027419681104 -1.6684268974078549 1.0080733107363442 -4.76038408853821 0.000001129311554346898 -0.5699043734811856 -0.0000034393103381276456 -1.6398103951479013 17.923819240260446 -4.105672787358237 -0.1458570592117991 3.4232648485372823 -0.19873570650836575 0 0 0 -13.739013557497985 1.538985369642137 -8.313170694716817 -16.403886044754554 -14.3088601104919 -53.95616670932732 -63.78301417409138 0.4131816009845781 0.664038471506446 11.947967860051335 36.934283957263865 19.001833686717873 7.23293898592706 2.4637875562915887 -37.255768841412916 2.4951273586564438 0.6482632965506979 -29.126063058078913 1.1895186609383326 0.13993345297074447 -13.420795486179857 7.6239087519106 2.0421846659275196 -25.605410606655397 2.6281756812910912 0.7250096705211346 -30.841603457344952 1.9390468572793138 0.380936063488691 -22.228529385009992 13.837955006330722 3.8943752321109772 -19.219160269712386 0.6646421441048758 0.04327037975320799 -7.451852061277655 1.8749315965507771 0.35524108174273034 -21.456729679761104 8.794397287118457 2.5035896682530008 -24.370096540856554 1.837275220673732 0.34060499712687115 -21.005306775573256 1.672041943719107 0.2803923641245467 -19.039971311966298 -2.6328476916788226 6.722734577127077 1.3452971264512952 22.373176370809233 16.78627729586357 -2.724289415885901 1.2477057035300851 4.648366015895875 -1.3377363481157825 0.016590750074519853 0.04535217067509454 1.1797537944221268 -4.186810366751376 -27.309678857219712 10.942980106839629 0 0 0 0 0 0 0 0 0 15.262753786637589 1.84790487293447 9.789923094836968 29.472701163183363 -23.730142094063023 45.49191519694493 39.4889246316015 0.1689086883982116 -0.4706639359484403 4.598531918525055 31.834188894423576 4.800777427926254 -4.880078385745477 0.6812260340546055 17.562204863533587 -2.018231891074152 0.5588605957356314 30.952728751371332 -1.351096331682897 0.2399887630574231 20.142681451399554 -2.469694668992513 -0.1282628688507169 19.779956805559014 -1.5630965482924393 0.32481939002526994 23.476683007651935 -0.49362277344489247 0.031176813551637195 7.228173379236005 -8.901840562017782 1.4175584915473687 12.213023937799747 -1.4548254102379463 0.27970125278302277 21.764144745181227 -1.1221896215028584 0.16390239208475774 16.61988288418925 -3.2802807532337064 0.0939069989308527 26.077536380074243 -1.4262444547447404 0.2684075658633898 21.315790551591824 -0.3690302240060983 0.017402233377846504 5.397470408833373 4.844426034914192 1.1693248196938493 -22.158005938038166 -17.22478766639913 26.788197614314875 5.0030825640098175 -10.662581305815007 -2.908692562173293 7.166940577745368
